<?xml version="1.0" standalone="no"?><!DOCTYPE svg PUBLIC "-//W3C//DTD SVG 1.1//EN" "http://www.w3.org/Graphics/SVG/1.1/DTD/svg11.dtd"><svg t="1667796452363" class="icon" viewBox="0 0 1024 1024" version="1.1" xmlns="http://www.w3.org/2000/svg" p-id="7135" xmlns:xlink="http://www.w3.org/1999/xlink" width="200" height="200"><path d="M945.230769 433.230769h78.769231v78.769231h-78.769231zM866.461538 512h78.769231v78.769231h-78.769231zM787.692308 590.769231h78.76923v78.769231h-78.76923zM708.923077 669.538462h78.769231v78.76923h-78.769231zM630.153846 748.307692h78.769231v78.769231h-78.769231zM551.384615 827.076923h78.769231v78.769231h-78.769231zM472.615385 905.846154h78.76923v78.769231h-78.76923zM393.846154 827.076923h78.769231v78.769231h-78.769231zM315.076923 748.307692h78.769231v78.769231h-78.769231zM236.307692 669.538462h78.769231v78.76923h-78.769231zM157.538462 590.769231h78.76923v78.769231H157.538462zM78.769231 512h78.769231v78.769231H78.769231zM0 433.230769h78.769231v78.769231H0zM945.230769 354.461538h78.769231v78.769231h-78.769231zM945.230769 275.692308h78.769231v78.76923h-78.769231zM945.230769 196.923077h78.769231v78.769231h-78.769231z" fill="#1E2028" p-id="7136"></path><path d="M866.461538 433.230769h78.769231v78.769231h-78.769231zM866.461538 354.461538h78.769231v78.769231h-78.769231zM866.461538 275.692308h78.769231v78.76923h-78.769231zM866.461538 196.923077h78.769231v78.769231h-78.769231z" fill="#AF1441" p-id="7137"></path><path d="M866.461538 118.153846h78.769231v78.769231h-78.769231z" fill="#1E2028" p-id="7138"></path><path d="M787.692308 512h78.76923v78.769231h-78.76923z" fill="#AF1441" p-id="7139"></path><path d="M787.692308 433.230769h78.76923v78.769231h-78.76923zM787.692308 354.461538h78.76923v78.769231h-78.76923zM787.692308 275.692308h78.76923v78.76923h-78.76923zM787.692308 196.923077h78.76923v78.769231h-78.76923z" fill="#FF1A51" p-id="7140"></path><path d="M787.692308 118.153846h78.76923v78.769231h-78.76923z" fill="#AF1441" p-id="7141"></path><path d="M787.692308 39.384615h78.76923v78.769231h-78.76923z" fill="#1E2028" p-id="7142"></path><path d="M708.923077 590.769231h78.769231v78.769231h-78.769231z" fill="#AF1441" p-id="7143"></path><path d="M708.923077 512h78.769231v78.769231h-78.769231zM708.923077 433.230769h78.769231v78.769231h-78.769231zM708.923077 354.461538h78.769231v78.769231h-78.769231zM708.923077 275.692308h78.769231v78.76923h-78.769231zM708.923077 196.923077h78.769231v78.769231h-78.769231zM708.923077 118.153846h78.769231v78.769231h-78.769231z" fill="#FF1A51" p-id="7144"></path><path d="M708.923077 39.384615h78.769231v78.769231h-78.769231z" fill="#1E2028" p-id="7145"></path><path d="M630.153846 669.538462h78.769231v78.76923h-78.769231z" fill="#AF1441" p-id="7146"></path><path d="M630.153846 590.769231h78.769231v78.769231h-78.769231zM630.153846 512h78.769231v78.769231h-78.769231zM630.153846 433.230769h78.769231v78.769231h-78.769231zM630.153846 354.461538h78.769231v78.769231h-78.769231zM630.153846 275.692308h78.769231v78.76923h-78.769231zM630.153846 196.923077h78.769231v78.769231h-78.769231zM630.153846 118.153846h78.769231v78.769231h-78.769231z" fill="#FF1A51" p-id="7147"></path><path d="M630.153846 39.384615h78.769231v78.769231h-78.769231z" fill="#1E2028" p-id="7148"></path><path d="M551.384615 748.307692h78.769231v78.769231h-78.769231z" fill="#AF1441" p-id="7149"></path><path d="M551.384615 669.538462h78.769231v78.76923h-78.769231zM551.384615 590.769231h78.769231v78.769231h-78.769231zM551.384615 512h78.769231v78.769231h-78.769231zM551.384615 433.230769h78.769231v78.769231h-78.769231zM551.384615 354.461538h78.769231v78.769231h-78.769231zM551.384615 275.692308h78.769231v78.76923h-78.769231zM551.384615 196.923077h78.769231v78.769231h-78.769231z" fill="#FF1A51" p-id="7150"></path><path d="M551.384615 118.153846h78.769231v78.769231h-78.769231z" fill="#1E2028" p-id="7151"></path><path d="M472.615385 827.076923h78.76923v78.769231h-78.76923z" fill="#F4608A" p-id="7152"></path><path d="M472.615385 748.307692h78.76923v78.769231h-78.76923zM472.615385 669.538462h78.76923v78.76923h-78.76923zM472.615385 590.769231h78.76923v78.769231h-78.76923zM472.615385 512h78.76923v78.769231h-78.76923zM472.615385 433.230769h78.76923v78.769231h-78.76923zM472.615385 354.461538h78.76923v78.769231h-78.76923zM472.615385 275.692308h78.76923v78.76923h-78.76923z" fill="#FF1A51" p-id="7153"></path><path d="M472.615385 196.923077h78.76923v78.769231h-78.76923z" fill="#1E2028" p-id="7154"></path><path d="M393.846154 748.307692h78.769231v78.769231h-78.769231z" fill="#F4608A" p-id="7155"></path><path d="M393.846154 669.538462h78.769231v78.76923h-78.769231zM393.846154 590.769231h78.769231v78.769231h-78.769231zM393.846154 512h78.769231v78.769231h-78.769231zM393.846154 433.230769h78.769231v78.769231h-78.769231zM393.846154 354.461538h78.769231v78.769231h-78.769231zM393.846154 275.692308h78.769231v78.76923h-78.769231zM393.846154 196.923077h78.769231v78.769231h-78.769231z" fill="#FF1A51" p-id="7156"></path><path d="M393.846154 118.153846h78.769231v78.769231h-78.769231z" fill="#1E2028" p-id="7157"></path><path d="M315.076923 669.538462h78.769231v78.76923h-78.769231z" fill="#F4608A" p-id="7158"></path><path d="M315.076923 590.769231h78.769231v78.769231h-78.769231zM315.076923 512h78.769231v78.769231h-78.769231zM315.076923 433.230769h78.769231v78.769231h-78.769231zM315.076923 354.461538h78.769231v78.769231h-78.769231zM315.076923 275.692308h78.769231v78.76923h-78.769231zM315.076923 196.923077h78.769231v78.769231h-78.769231zM315.076923 118.153846h78.769231v78.769231h-78.769231z" fill="#FF1A51" p-id="7159"></path><path d="M315.076923 39.384615h78.769231v78.769231h-78.769231z" fill="#1E2028" p-id="7160"></path><path d="M236.307692 590.769231h78.769231v78.769231h-78.769231z" fill="#F4608A" p-id="7161"></path><path d="M236.307692 512h78.769231v78.769231h-78.769231zM236.307692 433.230769h78.769231v78.769231h-78.769231zM236.307692 354.461538h78.769231v78.769231h-78.769231zM236.307692 275.692308h78.769231v78.76923h-78.769231z" fill="#FF1A51" p-id="7162"></path><path d="M236.307692 196.923077h78.769231v78.769231h-78.769231z" fill="#FFFFFF" p-id="7163"></path><path d="M236.307692 118.153846h78.769231v78.769231h-78.769231z" fill="#FF1A51" p-id="7164"></path><path d="M236.307692 39.384615h78.769231v78.769231h-78.769231z" fill="#1E2028" p-id="7165"></path><path d="M157.538462 512h78.76923v78.769231H157.538462z" fill="#F4608A" p-id="7166"></path><path d="M157.538462 433.230769h78.76923v78.769231H157.538462zM157.538462 354.461538h78.76923v78.769231H157.538462z" fill="#FF1A51" p-id="7167"></path><path d="M157.538462 275.692308h78.76923v78.76923H157.538462zM157.538462 196.923077h78.76923v78.769231H157.538462z" fill="#FFFFFF" p-id="7168"></path><path d="M157.538462 118.153846h78.76923v78.769231H157.538462z" fill="#F4608A" p-id="7169"></path><path d="M157.538462 39.384615h78.76923v78.769231H157.538462z" fill="#1E2028" p-id="7170"></path><path d="M78.769231 433.230769h78.769231v78.769231H78.769231zM78.769231 354.461538h78.769231v78.769231H78.769231zM78.769231 275.692308h78.769231v78.76923H78.769231zM78.769231 196.923077h78.769231v78.769231H78.769231z" fill="#F4608A" p-id="7171"></path><path d="M78.769231 118.153846h78.769231v78.769231H78.769231zM0 354.461538h78.769231v78.769231H0zM0 275.692308h78.769231v78.76923H0zM0 196.923077h78.769231v78.769231H0z" fill="#1E2028" p-id="7172"></path></svg>